<svg width="24" height="24" viewBox="0 0 24 24" fill="none" xmlns="http://www.w3.org/2000/svg">
<g clip-path="url(#clip0_123_2235)">
<path fill-rule="evenodd" clip-rule="evenodd" d="M17.9475 11.25H22.5V12.75H18.8522C18.9429 12.9161 19.0233 13.0886 19.0925 13.2668C20.8899 13.4047 22.25 14.9439 22.25 16.747C22.25 18.6371 20.7555 20.2372 18.8295 20.2372C18.8029 20.2372 18.7764 20.2369 18.75 20.2363V20.2389H12.75V22.5H11.25V20.2363C11.2236 20.2369 11.1971 20.2372 11.1705 20.2372C9.24448 20.2372 7.75 18.6371 7.75 16.747C7.75 16.5813 7.76148 16.4179 7.78373 16.2576L7.76311 16.2371C6.82241 15.2963 6.22073 14.0697 6.0525 12.75H1.5V11.25H6.0525C6.22073 9.93026 6.82241 8.70373 7.76311 7.76294C8.70381 6.82214 9.93028 6.22033 11.25 6.05197V1.5H12.75V6.05197C14.0697 6.22033 15.2962 6.82214 16.2369 7.76294C17.1776 8.70373 17.7793 9.93026 17.9475 11.25ZM16.499 12.089C17.0518 12.3933 17.504 12.858 17.7928 13.4203C17.7997 13.4338 17.8066 13.4474 17.8133 13.461C17.9894 13.8164 18.1006 14.2095 18.1317 14.625C18.3507 14.5483 18.5854 14.5068 18.8295 14.5068C18.9636 14.5068 19.095 14.5193 19.2224 14.5434C20.2336 14.7342 21 15.6482 21 16.747C21 17.3871 20.7399 17.9645 20.3228 18.3728L14.3344 11.7632C14.5411 11.7208 14.7552 11.6985 14.9745 11.6985C15.5272 11.6985 16.0468 11.8401 16.499 12.089ZM13.1274 12.2928L19.1682 18.9601C19.0578 18.978 18.9447 18.9872 18.8295 18.9872C18.8029 18.9872 18.7764 18.9867 18.75 18.9858L17.5 18.9889H17.4261L12.241 13.2659C12.4655 12.8828 12.7683 12.5511 13.1274 12.2928ZM11.7521 14.5881L15.7393 18.9889H14.0185L10.1806 14.7528C10.3872 14.6433 10.613 14.5671 10.8515 14.5308C10.9556 14.515 11.0621 14.5068 11.1705 14.5068C11.372 14.5068 11.567 14.5351 11.7521 14.5881ZM9.28861 15.6301L12.3315 18.9885C11.875 18.9879 11.875 18.9902 11.875 18.9915C11.8748 18.9928 11.8642 18.9928 11.25 18.9858C11.2236 18.9867 11.1971 18.9872 11.1705 18.9872C10.1272 18.9872 9.25579 18.2275 9.04738 17.2147C9.01633 17.0639 9 16.9074 9 16.747C9 16.3403 9.10502 15.9588 9.28861 15.6301ZM10.8547 13.2713C9.83418 13.3655 8.95893 13.9124 8.40036 14.7005C8.17536 14.4006 7.98755 14.0721 7.84254 13.7221C7.50195 12.8998 7.41283 11.995 7.58647 11.1221C7.7601 10.2492 8.18868 9.44736 8.81802 8.81802C9.44736 8.18868 10.2492 7.7601 11.1221 7.58647C11.995 7.41283 12.8998 7.50195 13.7221 7.84254C14.5443 8.18314 15.2471 8.75991 15.7416 9.49993C15.98 9.85665 16.1647 10.2436 16.2922 10.6484C15.8761 10.5185 15.4335 10.4485 14.9745 10.4485C13.0971 10.4485 11.494 11.6194 10.8547 13.2713Z" fill="black"/>
</g>
<defs>
<clipPath id="clip0_123_2235">
<rect width="24" height="24" fill="black"/>
</clipPath>
</defs>
</svg>
