<svg width="32" height="32" viewBox="0 0 32 32" fill="none" xmlns="http://www.w3.org/2000/svg">
<g clip-path="url(#clip0_390_4193)">
<path d="M16 2C13.2311 2 10.5243 2.82109 8.22202 4.35943C5.91973 5.89777 4.12532 8.08427 3.06569 10.6424C2.00607 13.2006 1.72882 16.0155 2.26901 18.7313C2.80921 21.447 4.14258 23.9416 6.10051 25.8995C8.05845 27.8574 10.553 29.1908 13.2687 29.731C15.9845 30.2712 18.7994 29.9939 21.3576 28.9343C23.9157 27.8747 26.1022 26.0803 27.6406 23.778C29.1789 21.4757 30 18.7689 30 16C29.9958 12.2883 28.5195 8.72973 25.8949 6.10512C23.2703 3.48052 19.7118 2.00418 16 2ZM4.02001 16.394L5.35841 16.8398L7.00001 19.3027V20.5858C7.00001 20.851 7.10537 21.1054 7.29291 21.2929L10 24V26.3765C8.23798 25.3568 6.76449 23.9055 5.71831 22.159C4.67212 20.4126 4.08767 18.4287 4.02001 16.394ZM16 28C15.135 27.9983 14.2727 27.9029 13.4282 27.7153L14 26L15.8046 21.4884C15.8649 21.3378 15.8876 21.1748 15.8708 21.0134C15.854 20.8521 15.7982 20.6973 15.7082 20.5623L14.2969 18.4453C14.2056 18.3083 14.0819 18.196 13.9367 18.1183C13.7915 18.0406 13.6294 18 13.4648 18H8.53481L7.28661 16.1274L9.41411 14H11V16H13V13.2656L16.8682 6.4961L15.1318 5.5039L14.2769 7H11.5352L10.4492 5.3711C11.9071 4.60167 13.5094 4.1446 15.1539 4.02905C16.7983 3.9135 18.4488 4.14201 20 4.7V8C20 8.26522 20.1054 8.51957 20.2929 8.70711C20.4804 8.89464 20.7348 9 21 9H22.4648C22.6294 9.00001 22.7915 8.95937 22.9367 8.88169C23.0818 8.804 23.2056 8.69169 23.2969 8.5547L24.1738 7.2393C25.3162 8.30441 26.2403 9.58174 26.8945 11H22.82C22.5888 11 22.3648 11.0801 22.186 11.2267C22.0072 11.3732 21.8847 11.5772 21.8394 11.8039L21.1173 16.2747C21.0833 16.485 21.1174 16.7006 21.2145 16.8902C21.3117 17.0797 21.4668 17.2333 21.6573 17.3286L25 19L25.6851 23.0557C24.5752 24.5854 23.1192 25.8308 21.4359 26.6901C19.7526 27.5494 17.8899 27.9983 16 28Z" fill="black"/>
</g>
<defs>
<clipPath id="clip0_390_4193">
<rect width="32" height="32" fill="black"/>
</clipPath>
</defs>
</svg>
