<svg width="24" height="24" viewBox="0 0 24 24" fill="none" xmlns="http://www.w3.org/2000/svg">
<g clip-path="url(#clip0_123_1621)">
<path d="M18.6813 21.705L12.6238 10.8658C12.5618 10.7549 12.4713 10.6625 12.3616 10.5982C12.2519 10.5339 12.1271 10.5 12 10.5C11.8729 10.5 11.748 10.5339 11.6384 10.5982C11.5287 10.6625 11.4382 10.7549 11.3761 10.8658L5.3187 21.705C5.27319 21.7863 5.24975 21.8781 5.2507 21.9713C5.25165 22.0644 5.27695 22.1557 5.32409 22.2361C5.37124 22.3165 5.43858 22.3831 5.51944 22.4294C5.60031 22.4757 5.69187 22.5 5.78505 22.5H18.215C18.3082 22.5 18.3998 22.4757 18.4806 22.4294C18.5615 22.3831 18.6288 22.3165 18.676 22.2361C18.7231 22.1557 18.7484 22.0644 18.7493 21.9713C18.7503 21.8781 18.7268 21.7863 18.6813 21.705ZM11.3437 14.25H12.6562V18.375H11.3437V14.25ZM12 21C11.8517 21 11.7067 20.956 11.5833 20.8736C11.46 20.7912 11.3639 20.6741 11.3071 20.537C11.2503 20.4 11.2355 20.2492 11.2644 20.1037C11.2933 19.9582 11.3648 19.8246 11.4697 19.7197C11.5746 19.6148 11.7082 19.5433 11.8537 19.5144C11.9992 19.4855 12.15 19.5003 12.287 19.5571C12.4241 19.6139 12.5412 19.71 12.6236 19.8333C12.706 19.9567 12.75 20.1017 12.75 20.25C12.75 20.4489 12.671 20.6397 12.5303 20.7803C12.3897 20.921 12.1989 21 12 21Z" fill="white"/>
<path d="M18.6006 6.85217C18.281 5.33845 17.4508 3.98059 16.2492 3.00615C15.0475 2.03172 13.5475 1.49994 12.0004 1.49994C10.4533 1.49994 8.95323 2.03172 7.75158 3.00615C6.54994 3.98059 5.71975 5.33845 5.40016 6.85217C4.24109 7.08761 3.20733 7.73685 2.4919 8.67868C1.77647 9.62051 1.42828 10.7905 1.51235 11.9703C1.59642 13.15 2.107 14.2589 2.94876 15.0897C3.79051 15.9206 4.90589 16.4167 6.08664 16.4854L6.91629 15H6.37501C5.72605 15.003 5.09011 14.8179 4.54406 14.4672C3.99801 14.1165 3.5652 13.6151 3.29794 13.0238C3.03069 12.4324 2.94041 11.7762 3.03803 11.1346C3.13565 10.493 3.41698 9.89346 3.84804 9.40832L7.82079 13.3806L8.58054 12.0205L5.08554 8.52504C5.41018 8.38386 5.75541 8.29581 6.10801 8.26427L6.71964 8.21634L6.79396 7.60734C6.81174 7.46154 6.83754 7.31874 6.86686 7.17737L9.70186 10.013L10.4622 8.65172L7.45201 5.64152C7.82342 4.99346 8.32845 4.43182 8.93356 3.99392L19.4146 14.475C18.8799 14.8162 18.2593 14.9982 17.625 15H17.0821L17.9123 16.485C19.0931 16.4165 20.2086 15.9206 21.0505 15.0899C21.8924 14.2592 22.4032 13.1504 22.4875 11.9707C22.5717 10.791 22.2238 9.62087 21.5085 8.67889C20.7933 7.73692 19.7596 7.08784 18.6006 6.85217ZM20.4752 13.4147L10.3367 3.27617C11.0737 3.02668 11.8571 2.94478 12.6298 3.03642C13.4024 3.12805 14.1449 3.39093 14.8031 3.80588C15.4613 4.22083 16.0186 4.77741 16.4344 5.43504C16.8502 6.09268 17.1141 6.83481 17.2067 7.60734L17.2807 8.21634L17.8922 8.26427C18.7367 8.3343 19.5243 8.71826 20.0996 9.34039C20.6749 9.96252 20.9961 10.7777 21 11.625C20.9982 12.2593 20.8163 12.88 20.4752 13.4147Z" fill="white"/>
</g>
<defs>
<clipPath id="clip0_123_1621">
<rect width="24" height="24" fill="white"/>
</clipPath>
</defs>
</svg>
