<svg width="32" height="32" viewBox="0 0 32 32" fill="none" xmlns="http://www.w3.org/2000/svg">
<g clip-path="url(#clip0_11_19)">
<path d="M29.37 14.75L20 10V6C20 4.93913 19.5786 3.92172 18.8284 3.17157C18.0783 2.42143 17.0609 2 16 2C14.9391 2 13.9217 2.42143 13.1716 3.17157C12.4214 3.92172 12 4.93913 12 6V10L2.63 14.75C2.44394 14.8241 2.28441 14.9524 2.17208 15.1182C2.05976 15.284 1.99981 15.4797 2 15.68V20.68C2 20.9452 2.10536 21.1996 2.29289 21.3871C2.48043 21.5746 2.73478 21.68 3 21.68C3.0986 21.6777 3.19633 21.6609 3.29 21.63L12 18V23L8.55 24.72C8.38357 24.8039 8.24388 24.9326 8.14669 25.0916C8.04951 25.2506 7.9987 25.4336 8 25.62V29C8 29.2652 8.10536 29.5196 8.29289 29.7071C8.48043 29.8946 8.73478 30 9 30C9.09276 30.0146 9.18724 30.0146 9.28 30L16 28L22.72 30C22.8128 30.0146 22.9072 30.0146 23 30C23.2652 30 23.5196 29.8946 23.7071 29.7071C23.8946 29.5196 24 29.2652 24 29V25.62C24.0013 25.4336 23.9505 25.2506 23.8533 25.0916C23.7561 24.9326 23.6164 24.8039 23.45 24.72L20 23V18L28.71 21.61C28.8037 21.6409 28.9014 21.6577 29 21.66C29.2652 21.66 29.5196 21.5546 29.7071 21.3671C29.8946 21.1796 30 20.9252 30 20.66V15.66C29.9962 15.4631 29.9344 15.2718 29.8224 15.1099C29.7103 14.948 29.5529 14.8228 29.37 14.75ZM28 19.15L18 15V24.24L22 26.24V27.67L16 25.92L10 27.67V26.24L14 24.24V15L4 19.15V16.3L14 11.23V6C14 5.46957 14.2107 4.96086 14.5858 4.58579C14.9609 4.21071 15.4696 4 16 4C16.5304 4 17.0391 4.21071 17.4142 4.58579C17.7893 4.96086 18 5.46957 18 6V11.23L28 16.3V19.15Z" fill="white"/>
</g>
<defs>
<clipPath id="clip0_11_19">
<rect width="32" height="32" fill="white"/>
</clipPath>
</defs>
</svg>
