<svg width="20" height="19" viewBox="0 0 20 19" fill="none" xmlns="http://www.w3.org/2000/svg">
<g clip-path="url(#clip0_161_2574)">
<path fill-rule="evenodd" clip-rule="evenodd" d="M13.0261 14.25L10.8072 18.5903C10.7594 18.7093 10.6773 18.8116 10.5711 18.8845C10.465 18.9574 10.3395 18.9976 10.2104 19H6.93126C6.75733 19 6.59052 18.9315 6.46753 18.8096C6.34454 18.6876 6.27544 18.5222 6.27544 18.3497C6.27693 18.2856 6.28798 18.222 6.30823 18.1611L7.94303 14.25H9.36522L7.92155 17.6994H9.79064L11.5543 14.25H13.0261ZM15.5076 12.497H16.5456C17.2413 12.497 17.9086 12.223 18.4005 11.7352C18.8925 11.2474 19.1689 10.5857 19.1689 9.89585C19.1689 9.20598 18.8925 8.54435 18.4005 8.05653C17.9086 7.56872 17.2413 7.29466 16.5456 7.29466H13.9223L10.8072 1.20137C10.7586 1.08038 10.6744 0.976636 10.5657 0.903591C10.457 0.830546 10.3286 0.791561 10.1973 0.791687H6.91815C6.74421 0.791687 6.5774 0.860201 6.45441 0.982155C6.33142 1.10411 6.26232 1.26952 6.26232 1.44198C6.26382 1.50611 6.27487 1.56966 6.29512 1.63057L8.37513 6.57943L9.15162 5.03133L7.92155 2.09228H9.79064L10.8298 4.12463C10.843 4.13837 10.8539 4.15295 10.8624 4.16839L13.3314 8.59526H16.5456C16.8935 8.59526 17.2271 8.73229 17.4731 8.97619C17.7191 9.2201 17.8572 9.55091 17.8572 9.89585C17.8572 10.2408 17.7191 10.5716 17.4731 10.8155C17.2271 11.0594 16.8935 11.1964 16.5456 11.1964H14.7822L15.5076 12.497ZM7.36405 8.59526L8.01639 7.29466H5.39664L4.26863 5.05114C4.21363 4.9429 4.12922 4.85207 4.02493 4.78887C3.92064 4.72567 3.80061 4.69263 3.67839 4.69347H1.46171C1.28778 4.69347 1.12097 4.76199 0.997976 4.88394C0.874986 5.0059 0.805891 5.1713 0.805891 5.34377C0.796311 5.40409 0.796311 5.46553 0.805891 5.52585L2.11753 9.89585L0.805891 14.2659C0.796311 14.3262 0.796311 14.3876 0.805891 14.4479C0.805891 14.6204 0.874986 14.7858 0.997976 14.9078C1.12097 15.0297 1.28778 15.0982 1.46171 15.0982H3.67839C3.80061 15.0991 3.92064 15.066 4.02493 15.0028C4.12922 14.9396 4.21363 14.8488 4.26863 14.7406L5.39664 12.497H5.40703L6.05937 11.1964H4.58342L3.27178 13.7976H2.33395L3.48164 9.89585L2.33395 5.99407H3.27178L4.58342 8.59526H7.36405Z" fill="white"/>
<path d="M14.3364 12.9339L10.7522 5.78304C10.7155 5.70985 10.662 5.6489 10.5971 5.60648C10.5322 5.56405 10.4583 5.54169 10.3831 5.54169C10.3079 5.54169 10.234 5.56405 10.1692 5.60648C10.1043 5.6489 10.0507 5.70985 10.014 5.78304L6.42987 12.9339C6.40294 12.9875 6.38907 13.0481 6.38963 13.1095C6.39019 13.171 6.40517 13.2312 6.43306 13.2843C6.46095 13.3373 6.5008 13.3812 6.54865 13.4118C6.59649 13.4423 6.65067 13.4584 6.7058 13.4584H14.0605C14.1156 13.4584 14.1698 13.4423 14.2176 13.4118C14.2655 13.3813 14.3053 13.3373 14.3332 13.2843C14.3611 13.2312 14.3761 13.171 14.3766 13.1095C14.3772 13.0481 14.3633 12.9875 14.3364 12.9339ZM9.99482 8.01564H10.7714V10.737H9.99482V8.01564ZM10.3831 12.4688C10.2954 12.4688 10.2096 12.4398 10.1366 12.3854C10.0636 12.331 10.0067 12.2537 9.97313 12.1633C9.93955 12.0729 9.93076 11.9734 9.94788 11.8774C9.965 11.7815 10.0073 11.6933 10.0693 11.6241C10.1314 11.5549 10.2105 11.5078 10.2965 11.4887C10.3826 11.4696 10.4719 11.4794 10.5529 11.5168C10.634 11.5543 10.7033 11.6177 10.7521 11.6991C10.8009 11.7805 10.8269 11.8761 10.8269 11.974C10.8269 12.1052 10.7801 12.2311 10.6969 12.3238C10.6137 12.4166 10.5008 12.4688 10.3831 12.4688Z" fill="white"/>
</g>
<defs>
<clipPath id="clip0_161_2574">
<rect width="19.1689" height="19" fill="white"/>
</clipPath>
</defs>
</svg>
