<svg width="16" height="16" viewBox="0 0 16 16" fill="none" xmlns="http://www.w3.org/2000/svg">
<g clip-path="url(#clip0_811_30240)">
<path d="M13 9C13 9.98891 12.7068 10.9556 12.1574 11.7779C11.6079 12.6001 10.8271 13.241 9.91342 13.6194C8.99979 13.9978 7.99446 14.0969 7.02455 13.9039C6.05465 13.711 5.16373 13.2348 4.46447 12.5355C3.76521 11.8363 3.289 10.9454 3.09608 9.97545C2.90315 9.00555 3.00217 8.00021 3.38061 7.08658C3.75904 6.17295 4.39991 5.39206 5.22215 4.84265C6.0444 4.29324 7.0111 4 8 4H10V6.5L13 3.5L10 0.5V3H8C6.81331 3 5.65328 3.35189 4.66658 4.01118C3.67989 4.67047 2.91085 5.60754 2.45673 6.7039C2.0026 7.80026 1.88378 9.00666 2.11529 10.1705C2.3468 11.3344 2.91825 12.4035 3.75736 13.2426C4.59648 14.0818 5.66558 14.6532 6.82946 14.8847C7.99335 15.1162 9.19975 14.9974 10.2961 14.5433C11.3925 14.0892 12.3295 13.3201 12.9888 12.3334C13.6481 11.3467 14 10.1867 14 9H13Z" fill="black"/>
<path d="M9.81499 11.065C9.59406 11.0704 9.37491 11.0242 9.17499 10.93C8.99746 10.8399 8.84469 10.7077 8.72999 10.545C8.60425 10.3552 8.516 10.143 8.46999 9.92001C8.41091 9.64398 8.3824 9.36228 8.38499 9.08001C8.38296 8.79776 8.41146 8.51613 8.46999 8.24001C8.51692 8.01728 8.6051 7.8053 8.72999 7.61501C8.84469 7.45229 8.99746 7.32011 9.17499 7.23001C9.37491 7.13582 9.59406 7.08959 9.81499 7.09501C10.0227 7.0792 10.231 7.11686 10.4201 7.20438C10.6091 7.29191 10.7726 7.42639 10.895 7.59501C11.1528 8.03845 11.2745 8.54792 11.245 9.06001C11.2745 9.5721 11.1528 10.0816 10.895 10.525C10.7773 10.701 10.6158 10.8433 10.4265 10.938C10.2371 11.0327 10.0264 11.0764 9.81499 11.065ZM9.81499 10.455C9.91579 10.461 10.0162 10.4384 10.1047 10.3897C10.1932 10.3411 10.2661 10.2684 10.315 10.18C10.4345 9.94614 10.4978 9.68763 10.5 9.42501V8.73501C10.5108 8.47712 10.4611 8.22028 10.355 7.98501C10.2991 7.89938 10.2227 7.82904 10.1328 7.78035C10.0429 7.73166 9.94225 7.70616 9.83999 7.70616C9.73773 7.70616 9.63709 7.73166 9.54717 7.78035C9.45724 7.82904 9.38088 7.89938 9.32499 7.98501C9.21883 8.22028 9.16918 8.47712 9.17999 8.73501V9.42501C9.16968 9.68447 9.21929 9.94282 9.32499 10.18C9.37268 10.2672 9.44391 10.3392 9.53055 10.3878C9.61719 10.4364 9.71575 10.4597 9.81499 10.455Z" fill="black"/>
<path d="M5.31499 11V10.41H6.31499V7.81501L5.38499 8.31501L5.10999 7.78501L6.26999 7.13501H6.99999V10.385H7.88999V11H5.31499Z" fill="black"/>
</g>
<defs>
<clipPath id="clip0_811_30240">
<rect width="16" height="16" fill="black"/>
</clipPath>
</defs>
</svg>
