<svg width="24" height="24" viewBox="0 0 24 24" fill="none" xmlns="http://www.w3.org/2000/svg">
<path fill-rule="evenodd" clip-rule="evenodd" d="M18.3988 5.2043C18.3656 5.17028 18.331 5.14399 18.2921 5.12388C17.8289 4.74499 17.3514 4.44652 16.8594 4.21455C16.3386 3.97176 15.8062 3.80938 15.2637 3.71504C15.0487 3.67793 14.8453 3.83412 14.8107 4.06454C14.776 4.29497 14.9218 4.51302 15.1367 4.55014C15.6157 4.63365 16.0861 4.77747 16.5434 4.99088C16.8781 5.14708 17.2085 5.34193 17.5332 5.58009C17.1075 6.18012 16.969 6.80799 17.1003 7.46215C17.2388 8.15188 17.6875 8.8447 18.4248 9.53752C18.4147 9.7896 18.4104 10.0463 18.4118 10.3061C18.4133 10.634 18.4219 10.951 18.4378 11.2618C18.4616 11.7444 18.5097 12.213 18.5673 12.6748C18.9158 13.021 19.2319 13.3753 19.5129 13.7398C19.4996 13.6429 19.4861 13.546 19.4726 13.449L19.4694 13.4254C19.3669 12.6923 19.2645 11.9531 19.2284 11.2201C19.2125 10.9077 19.2039 10.603 19.2024 10.3077C19.2024 10.0772 19.2053 9.84527 19.214 9.60866C19.3842 9.47876 19.5285 9.33029 19.6468 9.16173C19.8113 8.92512 19.9195 8.65758 19.9671 8.35138C20.0797 7.61989 19.8935 7.00285 19.5588 6.46931C19.2558 5.98681 18.8389 5.58628 18.4219 5.23213C18.4147 5.22286 18.4075 5.21358 18.3988 5.2043ZM17.8737 7.28895C17.7929 6.88996 17.8852 6.49406 18.1608 6.09816C18.4464 6.35488 18.7119 6.63479 18.9024 6.94099C19.1332 7.30905 19.2616 7.72815 19.1866 8.21683C19.1621 8.38385 19.1029 8.53077 19.0149 8.65603C18.973 8.71634 18.9226 8.77356 18.8663 8.82769C18.3065 8.28488 17.9703 7.77145 17.8737 7.28895Z" fill="white"/>
<path d="M14.2321 6.78454V4.25631C14.2321 3.63462 13.9955 3.07016 13.6146 2.66189C13.2337 2.25362 12.7071 2 12.1286 2H6.67778C6.10067 2 5.57695 2.25208 5.1975 2.6588C4.81805 3.06552 4.58288 3.62689 4.58288 4.24548V18.5396C4.50064 18.5937 4.42417 18.6586 4.35636 18.7313C4.13706 18.9679 4 19.2927 4 19.6515V20.5763C4 20.8098 4.17746 21 4.39532 21H8.92082C8.79059 20.7264 8.67912 20.4442 8.58703 20.1556H4.79208V19.6546C4.79208 19.5293 4.83969 19.4164 4.91616 19.3344C4.95367 19.2942 4.9984 19.2618 5.04745 19.2386H8.36361C8.31373 18.9466 8.28286 18.6505 8.27155 18.3524H5.37352V4.24548C5.37352 3.86196 5.52068 3.51245 5.75729 3.25883C5.99391 3.00521 6.31997 2.84747 6.67778 2.84747H12.1271C12.4878 2.84747 12.8168 3.00676 13.0548 3.26192C13.2929 3.51709 13.4415 3.86969 13.4415 4.25631V7.82248C13.6934 7.48816 13.9568 7.14241 14.2321 6.78454Z" fill="white"/>
<path fill-rule="evenodd" clip-rule="evenodd" d="M11.5716 4.12486H7.32414C7.12071 4.12486 6.93315 4.20837 6.79031 4.346C6.77877 4.35528 6.76867 4.36611 6.75857 4.37693C6.61285 4.53158 6.5234 4.74654 6.5234 4.98315V7.88898C6.5234 8.12559 6.6143 8.34055 6.75857 8.4952L6.76002 8.49365C6.90574 8.6483 7.10484 8.74573 7.32414 8.74573H11.5716C11.7924 8.74573 11.9929 8.6483 12.1372 8.49365C12.2829 8.339 12.3724 8.12404 12.3724 7.88743V4.98315C12.3724 4.7651 12.2945 4.56406 12.1661 4.41096C12.1574 4.39858 12.1473 4.38776 12.1372 4.37693C11.9929 4.22074 11.7924 4.12486 11.5716 4.12486ZM11.5716 4.97233C11.5745 4.97233 11.576 4.97387 11.5774 4.97697L11.5803 4.98006V7.88743L11.5774 7.89362L11.5716 7.89671H7.32414C7.32125 7.89671 7.31837 7.89517 7.31837 7.89517V7.89207L7.31548 7.88589V4.98161L7.31837 4.97542L7.32125 4.97233H11.5716Z" fill="white"/>
<path d="M16.5 12.6168V15.7044C15.5 15.7044 14.5 14.1606 14.5 11.5876V8.5C10.5 13.646 9.5 15.7044 9.5 17.7628C9.5 18.7729 9.7888 19.7607 10.3304 20.603C10.872 21.4454 11.6425 22.1051 12.5458 22.5C12.8514 21.1018 13.5279 19.8182 14.5 18.792C15.4721 19.8182 16.1486 21.1018 16.4542 22.5C17.3575 22.1051 18.128 21.4454 18.6696 20.603C19.2112 19.7607 19.5 18.7729 19.5 17.7628C19.5 15.7044 18.375 14.0871 16.5 12.6168Z" fill="white"/>
</svg>
