<svg width="24" height="24" viewBox="0 0 24 24" fill="none" xmlns="http://www.w3.org/2000/svg">
<g clip-path="url(#clip0_154_2105)">
<path fill-rule="evenodd" clip-rule="evenodd" d="M12.55 13.325L15.85 14.7V13.6L12.55 11.95V10.3C12.55 10.1541 12.492 10.0142 12.3889 9.91109C12.2858 9.80795 12.1459 9.75 12 9.75C11.8541 9.75 11.7142 9.80795 11.6111 9.91109C11.5079 10.0142 11.45 10.1541 11.45 10.3V11.95L8.14999 13.6V14.7L11.45 13.325V16.35L9.79999 17.45V18L12 17.45L14.2 18V17.45L12.55 16.35V13.325Z" fill="black"/>
<path fill-rule="evenodd" clip-rule="evenodd" d="M21.7428 19.875L12 3L2.25721 19.875L21.7428 19.875ZM13.299 2.25C12.7217 1.25 11.2783 1.25 10.701 2.25L0.958174 19.125C0.380823 20.125 1.10251 21.375 2.25721 21.375H21.7428C22.8975 21.375 23.6192 20.125 23.0418 19.125L13.299 2.25Z" fill="black"/>
</g>
<defs>
<clipPath id="clip0_154_2105">
<rect width="24" height="24" fill="black"/>
</clipPath>
</defs>
</svg>
