<svg width="16" height="16" viewBox="0 0 16 16" fill="none" xmlns="http://www.w3.org/2000/svg">
<g clip-path="url(#clip0_33_381)">
<path d="M13.725 7.555L2.725 2.055C2.63879 2.01189 2.54195 1.99461 2.44614 2.00526C2.35034 2.0159 2.25965 2.05401 2.185 2.115C2.11372 2.17475 2.06051 2.2532 2.03136 2.34153C2.00221 2.42985 1.99828 2.52456 2.02 2.615L3.5 8L2 13.37C1.97962 13.4455 1.97724 13.5248 1.99306 13.6014C2.00887 13.678 2.04245 13.7499 2.09108 13.8111C2.13972 13.8724 2.20205 13.9214 2.27307 13.9542C2.34409 13.987 2.42182 14.0027 2.5 14C2.57827 13.9995 2.65534 13.9807 2.725 13.945L13.725 8.445C13.8069 8.40304 13.8756 8.3393 13.9236 8.26078C13.9716 8.18226 13.997 8.09203 13.997 8C13.997 7.90798 13.9716 7.81774 13.9236 7.73923C13.8756 7.66071 13.8069 7.59696 13.725 7.555ZM3.275 12.555L4.38 8.5H9V7.5H4.38L3.275 3.445L12.38 8L3.275 12.555Z" fill="white"/>
</g>
<defs>
<clipPath id="clip0_33_381">
<rect width="16" height="16" fill="white"/>
</clipPath>
</defs>
</svg>
