<svg width="15" height="15" viewBox="0 0 15 15" fill="none" xmlns="http://www.w3.org/2000/svg">
<path fill-rule="evenodd" clip-rule="evenodd" d="M7.49985 0.877075C3.84216 0.877075 0.877014 3.84222 0.877014 7.49991C0.877014 11.1576 3.84216 14.1227 7.49985 14.1227C11.1575 14.1227 14.1227 11.1576 14.1227 7.49991C14.1227 3.84222 11.1575 0.877075 7.49985 0.877075ZM1.82701 7.49991C1.82701 4.36689 4.36683 1.82708 7.49985 1.82708C10.6328 1.82708 13.1727 4.36689 13.1727 7.49991C13.1727 10.6329 10.6328 13.1727 7.49985 13.1727C4.36683 13.1727 1.82701 10.6329 1.82701 7.49991ZM7.5 11.5C9.70914 11.5 11.5 9.70914 11.5 7.5C11.5 5.29086 9.70914 3.5 7.5 3.5C5.29086 3.5 3.5 5.29086 3.5 7.5C3.5 9.70914 5.29086 11.5 7.5 11.5Z" fill="white"/>
</svg>
