<svg width="24" height="24" viewBox="0 0 24 24" fill="none" xmlns="http://www.w3.org/2000/svg">
<g clip-path="url(#clip0_182_4055)">
<path d="M15 7.125C14.4822 7.12501 14.0537 7.25907 13.5913 7.40377C12.7141 7.67826 11.7144 7.99107 9.75 7.5C6.75001 6.75005 12 11.25 12 11.25C12 11.25 16.5 7.12498 15 7.125Z" fill="black"/>
<path d="M14.6176 19.5L9.26201 19.4999C5.90497 19.4998 11.9754 15 11.9754 15C11.9754 15 18.2521 19.4999 14.6176 19.5Z" fill="black"/>
<path d="M12.1875 11.8125C12.1875 11.9161 12.1036 12 12 12C11.8964 12 11.8125 11.9161 11.8125 11.8125C11.8125 11.7089 11.8964 11.625 12 11.625C12.1036 11.625 12.1875 11.7089 12.1875 11.8125Z" fill="black"/>
<path d="M12 12.75C12.1036 12.75 12.1875 12.6661 12.1875 12.5625C12.1875 12.4589 12.1036 12.375 12 12.375C11.8964 12.375 11.8125 12.4589 11.8125 12.5625C11.8125 12.6661 11.8964 12.75 12 12.75Z" fill="black"/>
<path d="M12.1875 13.3125C12.1875 13.4161 12.1036 13.5 12 13.5C11.8964 13.5 11.8125 13.4161 11.8125 13.3125C11.8125 13.2089 11.8964 13.125 12 13.125C12.1036 13.125 12.1875 13.2089 12.1875 13.3125Z" fill="black"/>
<path d="M12 14.25C12.1036 14.25 12.1875 14.1661 12.1875 14.0625C12.1875 13.9589 12.1036 13.875 12 13.875C11.8964 13.875 11.8125 13.9589 11.8125 14.0625C11.8125 14.1661 11.8964 14.25 12 14.25Z" fill="black"/>
<path fill-rule="evenodd" clip-rule="evenodd" d="M5.25 2.25H18.75V3.75H17.6743C17.6775 4.8892 17.6046 6.43608 17.25 7.5C16.6421 9.32374 15.678 10.812 14.4099 11.6458C15.7504 12.552 16.7742 14.1589 17.2623 15.9306C17.5947 17.1372 17.6708 18.7255 17.6743 19.875H18.75V21.375H5.25V19.875H6.33823C6.33251 18.6888 6.40207 17.0513 6.7623 15.9306C7.37014 14.0395 8.33407 12.4962 9.60197 11.6315C8.26165 10.7576 7.23804 9.20818 6.74999 7.5C6.42289 6.35512 6.34404 4.8538 6.33826 3.75H5.25V2.25ZM16.1699 19.4789C16.1725 19.6157 16.1738 19.7481 16.1743 19.875H7.83825C7.83748 19.7245 7.83799 19.5664 7.84028 19.4029C7.85569 18.3 7.95143 17.1329 8.19034 16.3896C8.77925 14.5574 9.62179 13.3861 10.5553 12.8073C10.7287 12.63 11.25 12.062 11.25 11.6437C11.25 11.1421 10.5 10.425 10.5 10.425H10.5115C9.51949 9.82301 8.63799 8.6479 8.19228 7.08793C7.95451 6.25572 7.86222 5.10306 7.84233 4.07634C7.84016 3.96429 7.83886 3.85526 7.83828 3.75L16.1743 3.75C16.1747 3.87844 16.174 4.01231 16.172 4.15013C16.1566 5.21213 16.0609 6.324 15.827 7.02567C15.2433 8.77658 14.4042 9.90749 13.4602 10.4644C13.3052 10.621 12.75 11.2121 12.75 11.6437C12.75 12.0804 13.3181 12.6802 13.4654 12.8284C14.4599 13.4473 15.3597 14.6721 15.8162 16.329C16.0576 17.2051 16.15 18.4118 16.1699 19.4789Z" fill="black"/>
</g>
<defs>
<clipPath id="clip0_182_4055">
<rect width="24" height="24" fill="black"/>
</clipPath>
</defs>
</svg>
