<svg width="50" height="50" viewBox="0 0 50 50" fill="none" xmlns="http://www.w3.org/2000/svg"><g clip-path="url(#clip0_575_5579)"><path d="M45.8906 23.0469L31.25 15.625V9.375C31.25 7.7174 30.5915 6.12769 29.4194 4.95558C28.2473 3.78348 26.6576 3.125 25 3.125C23.3424 3.125 21.7527 3.78348 20.5806 4.95558C19.4085 6.12769 18.75 7.7174 18.75 9.375V15.625L4.10938 23.0469C3.81865 23.1627 3.56939 23.3631 3.39388 23.6222C3.21837 23.8812 3.1247 24.1871 3.125 24.5V32.3125C3.125 32.7269 3.28962 33.1243 3.58265 33.4174C3.87567 33.7104 4.2731 33.875 4.6875 33.875C4.84157 33.8714 4.99426 33.8451 5.14063 33.7969L18.75 28.125V35.9375L13.3594 38.625C13.0993 38.756 12.8811 38.9571 12.7292 39.2056C12.5774 39.4541 12.498 39.7401 12.5 40.0313V45.3125C12.5 45.7269 12.6646 46.1243 12.9576 46.4174C13.2507 46.7104 13.6481 46.875 14.0625 46.875C14.2074 46.8978 14.3551 46.8978 14.5 46.875L25 43.75L35.5 46.875C35.6449 46.8978 35.7926 46.8978 35.9375 46.875C36.3519 46.875 36.7493 46.7104 37.0424 46.4174C37.3354 46.1243 37.5 45.7269 37.5 45.3125V40.0313C37.502 39.7401 37.4226 39.4541 37.2708 39.2056C37.1189 38.9571 36.9007 38.756 36.6406 38.625L31.25 35.9375V28.125L44.8594 33.7656C45.0057 33.8139 45.1584 33.8402 45.3125 33.8438C45.7269 33.8438 46.1243 33.6791 46.4174 33.3861C46.7104 33.0931 46.875 32.6957 46.875 32.2813V24.4688C46.8691 24.1612 46.7726 23.8622 46.5975 23.6092C46.4223 23.3563 46.1765 23.1606 45.8906 23.0469ZM43.75 29.9219L28.125 23.4375V37.875L34.375 41V43.2344L25 40.5L15.625 43.2344V41L21.875 37.875V23.4375L6.25 29.9219V25.4688L21.875 17.5469V9.375C21.875 8.5462 22.2042 7.75134 22.7903 7.16529C23.3763 6.57924 24.1712 6.25 25 6.25C25.8288 6.25 26.6237 6.57924 27.2097 7.16529C27.7958 7.75134 28.125 8.5462 28.125 9.375V17.5469L43.75 25.4688V29.9219Z" fill="#fff"/></g><defs><clipPath id="clip0_575_5579"><rect width="50" height="50" fill="#fff"/></clipPath></defs></svg>